{"title":"BBC Bang Goes the Theory S05E03 Episode 3 HD 720p x264 [aularon]","uid":6638582,"size":593859120,"categoryP":"video","categoryS":"hd___tv_shows","magnet":"?xt=urn:btih:75ef50b04319d6116a4d96ef7cceb97473814aaf&amp;dn=BBC+Bang+Goes+the+Theory+S05E03+Episode+3+HD+720p+x264+%5Baularon%5D&amp;tr=udp%3A%2F%2Ftracker.openbittorrent.com%3A80&amp;tr=udp%3A%2F%2Fopen.demonii.com%3A1337&amp;tr=udp%3A%2F%2Ftracker.coppersurfer.tk%3A6969&amp;tr=udp%3A%2F%2Fexodus.desync.com%3A6969","seeders":1,"leechers":0,"uploader":"aularon","files":-1,"time":1314657905,"description":"BBC Bang Goes the Theory S05E03 Episode 3 HD 720p x264 aac mp4 [aularon]\n\n\n- - -\nSynopsis\n- - -\nJem witnesses the awesome power of rockets with the Bloodhound land speed record project, Yan re-enacts an Ancient Greek experiment to measure the earth's circumference with a couple of sticks, and Dallas goes in search of a robot to call his own.\n\n\n- - -\nURL\n- - -  &lt;a href=&quot;\nhttp://www.bbc.co.uk/programmes/b0141vbp&quot; rel=&quot;nofollow&quot; target=&quot;_NEW&quot;&gt;\nhttp://www.bbc.co.uk/programmes/b0141vbp&lt;/a&gt;\n\n\n- - -\nTechnical Details\n- - -\nGeneral\nComplete name                    : BBC.Bang.Goes.the.Theory.S05E03/Bang_Goes_the_Theory_Series_5_-_Episode_3_b0141vbp_default.mp4\nFormat                           : MPEG-4\nFormat profile                   : Base Media\nCodec ID                         : isom\nFile size                        : 566 MiB\nDuration                         : 29mn 19s\nOverall bit rate                 : 2 700 Kbps\nMovie name                       : Bang Goes the Theory: Series 5: Episode 3\nAlbum                            : Bang Goes the Theory: Series 5\nTrack name/Position              : 3\nTrack name/Total                 : 0\nPerformer                        : Bang Goes the Theory: Series 5\nGenre                            : Factual,Science &amp; Nature\nRecorded date                    : 2011-08-29T19:30:00+01:00\nTagged date                      : UTC 2011-08-29 20:11:12\nWriting application              : Lavf53.6.0\nCover                            : Yes\nComment                          : Recorded using get_iplayer, by Aularon.\nrtng                             : 2\nstik                             : 1\ndesc                             : Science series. Jem witnesses the power of rockets with the Bloodhound land speed record project. Yan re-enacts an Ancient Greek experiment to measure the earth's circumference.\ntvnn                             : BBC One\ntvsh                             : Bang Goes the Theory: Series 5\ntven                             : b0141vbp\ncatg                             : Factual,Science &amp; Nature\ntvsn                             : 5\ntves                             : 3\n\nVideo\nID                               : 1\nFormat                           : AVC\nFormat/Info                      : Advanced Video Codec\nFormat profile                   : &lt;a class=&quot;__cf_email__&quot; href=&quot;/cdn-cgi/l/email-protection&quot; data-cfemail=&quot;c58daca2ad8589f1ebf4&quot;&gt;[email&amp;#160;protected]&lt;/a&gt;&lt;script cf-hash='f9e31' type=&quot;text/javascript&quot;&gt;\n/* &lt;![CDATA[ */!function(){try{var t=&quot;currentScript&quot;in document?document.currentScript:function(){for(var t=document.getElementsByTagName(&quot;script&quot;),e=t.length;e--;)if(t[e].getAttribute(&quot;cf-hash&quot;))return t[e]}();if(t&amp;&amp;t.previousSibling){var e,r,n,i,c=t.previousSibling,a=c.getAttribute(&quot;data-cfemail&quot;);if(a){for(e=&quot;&quot;,r=parseInt(a.substr(0,2),16),n=2;a.length-n;n+=2)i=parseInt(a.substr(n,2),16)^r,e+=String.fromCharCode(i);e=document.createTextNode(e),c.parentNode.replaceChild(e,c)}}}catch(u){}}();/* ]]&gt; */&lt;/script&gt;\nFormat settings, CABAC           : Yes\nFormat settings, ReFrames        : 6 frames\nFormat settings, GOP             : M=1, N=50\nCodec ID                         : avc1\nCodec ID/Info                    : Advanced Video Coding\nDuration                         : 29mn 19s\nBit rate mode                    : Variable\nBit rate                         : 2 599 Kbps\nMaximum bit rate                 : 3 500 Kbps\nWidth                            : 1 280 pixels\nHeight                           : 720 pixels\nDisplay aspect ratio             : 16:9\nFrame rate mode                  : Constant\nFrame rate                       : 25.000 fps\nStandard                         : PAL\nColor space                      : YUV\nChroma subsampling               : 4:2:0\nBit depth                        : 8 bits\nScan type                        : Progressive\nBits/(Pixel*Frame)               : 0.113\nStream size                      : 545 MiB (96%)\n\nAudio\nID                               : 2\nFormat                           : AAC\nFormat/Info                      : Advanced Audio Codec\nFormat profile                   : HE-AAC / LC\nCodec ID                         : 40\nDuration                         : 29mn 19s\nBit rate mode                    : Constant\nBit rate                         : 96.0 Kbps\nChannel(s)                       : 2 channels\nChannel positions                : Front: L R\nSampling rate                    : 48.0 KHz / 24.0 KHz\nCompression mode                 : Lossy\nStream size                      : 19.9 MiB (4%)\n","torrent":{"xt":"urn:btih:75ef50b04319d6116a4d96ef7cceb97473814aaf","amp;dn":"BBC+Bang+Goes+the+Theory+S05E03+Episode+3+HD+720p+x264+%5Baularon%5D","amp;tr":["udp%3A%2F%2Ftracker.openbittorrent.com%3A80","udp%3A%2F%2Fopen.demonii.com%3A1337","udp%3A%2F%2Ftracker.coppersurfer.tk%3A6969","udp%3A%2F%2Fexodus.desync.com%3A6969"],"infoHash":"75ef50b04319d6116a4d96ef7cceb97473814aaf","infoHashBuffer":{"type":"Buffer","data":[117,239,80,176,67,25,214,17,106,77,150,239,124,206,185,116,115,129,74,175]},"announce":[],"urlList":[]}}